# xmcd
#
# Track frame offsets: 
#        150
#        24894
#        45011
#        59139
#        104926
#        128109
#        145301
#
# Disc length: 2573 seconds
#
# Revision: 0
# Processed by: cddbd v1.5.2PL0 Copyright (c) Steve Scherf et al.
# Submitted via: ExactAudioCopy v0.95b3
#
DISCID=600a0b07
DTITLE=Jimi Hendrix  - Live At The Los Angeles Forum 4-25-70 - Disc 1
DYEAR=1900
DGENRE=
TTITLE0=Spanish Castle Magic
TTITLE1=Foxy Lady
TTITLE2=Getting Your Brother's Shoes Together Again
TTITLE3=Getting My Heart Back Together Again
TTITLE4=Message To Love
TTITLE5=Easy Rider
TTITLE6=Machine Gun
EXTD=
EXTT0=
EXTT1=
EXTT2=
EXTT3=
EXTT4=
EXTT5=
EXTT6=
PLAYORDER=
